<svg viewBox="0 0 40 40" version="1.1" xmlns="http://www.w3.org/2000/svg" xmlns:xlink="http://www.w3.org/1999/xlink">
    <g stroke="none" strokewidth="1" class="icon__fill" fill-rule="evenodd" transform="translate(0, -4.000000)">
      <path d="M19.6861268,6.76916917 C10.3528305,6.7799807 2.78940436,14.3178548 2.77855618,23.6196196 C2.77855618,32.9258664 10.3483334,40.4700701 19.6861268,40.4700701 C29.0239202,40.4700701 36.5936974,32.9258664 36.5936974,23.6196196 C36.5936974,14.3133728 29.0239202,6.76916917 19.6861268,6.76916917 Z M19.6861268,4 C30.5584744,4 39.3722536,12.7840029 39.3722536,23.6196196 C39.3722536,34.4552363 30.5584744,43.2392392 19.6861268,43.2392392 C8.81377919,43.2392392 -1.99826206e-15,34.4552363 0,23.6196196 C3.99652411e-15,12.7840029 8.81377919,4 19.6861268,4 Z M24.4417326,31.8570571 C23.4457424,32.5900935 22.231411,32.9681666 20.9938481,32.9305305 C19.2277213,32.9305305 17.8750031,32.3531532 17.0734965,31.0890891 C16.5785311,30.3463463 16.3844821,29.4662663 16.3844821,28.0620621 L16.3844821,20.4944945 L12.8437916,20.4944945 L12.8437916,18.1625626 L16.3844821,18.1625626 L16.3844821,14.2834835 L19.447081,14.2834835 L19.447081,28.1041041 C19.447081,29.5615616 20.1360954,30.2482482 21.4156937,30.2482482 C22.076794,30.2519909 22.7191344,30.029366 23.2352542,29.6176176 L24.4417326,31.8570571 Z M23.0271438,19.3005005 C23.0233997,18.8269825 23.2085586,18.3713778 23.5418844,18.0339218 C23.8752102,17.6964658 24.3293964,17.5048033 24.8045198,17.5011011 L24.8607659,17.5011011 C25.3358892,17.5048033 25.7900754,17.6964658 26.1234012,18.0339218 C26.4567271,18.3713778 26.6418859,18.8269825 26.6381419,19.3005005 C26.6443783,20.2854628 25.8490564,21.0893853 24.8607659,21.0970971 L24.8045198,21.0970971 C23.8162292,21.0893853 23.0209074,20.2854628 23.0271438,19.3005005 Z" id="Combined-Shape"></path>
    </g>
</svg>